<svg width="31" height="31" viewBox="0 0 31 31" fill="none" xmlns="http://www.w3.org/2000/svg">
<ellipse cx="26" cy="2.78886" rx="3.17091" ry="2.78886" fill="#EF0000"/>
<path d="M26.0804 18.6242L24.6208 16.2832C24.2979 15.7726 24.0138 14.7888 24.0138 14.1911V11.8625C24.0138 7.34221 20.2033 3.6687 15.5275 3.6687C10.8388 3.68115 7.02835 7.34221 7.02835 11.8625V14.1787C7.02835 14.7764 6.74419 15.7601 6.43419 16.2707L4.9746 18.6118C4.41919 19.5208 4.29002 20.5544 4.63877 21.451C4.98752 22.36 5.77544 23.0823 6.80877 23.406C8.20377 23.8543 9.61168 24.1781 11.0454 24.4147C11.1875 24.4396 11.3296 24.452 11.4717 24.4769C11.6525 24.5018 11.8463 24.5268 12.04 24.5517C12.3758 24.6015 12.7117 24.6388 13.0604 24.6637C13.8742 24.7384 14.7009 24.7758 15.5275 24.7758C16.3413 24.7758 17.155 24.7384 17.9558 24.6637C18.2529 24.6388 18.55 24.6139 18.8342 24.5766C19.0667 24.5517 19.2992 24.5268 19.5317 24.4894C19.6738 24.4769 19.8158 24.452 19.9579 24.4271C21.4046 24.203 22.8383 23.8543 24.2333 23.406C25.2279 23.0823 25.99 22.36 26.3517 21.4385C26.7133 20.5046 26.61 19.4835 26.0804 18.6242ZM16.4704 13.5685C16.4704 14.0915 16.0313 14.5149 15.4888 14.5149C14.9463 14.5149 14.5071 14.0915 14.5071 13.5685V9.7082C14.5071 9.18519 14.9463 8.7618 15.4888 8.7618C16.0313 8.7618 16.4704 9.18519 16.4704 9.7082V13.5685Z" fill="white"/>
<path d="M19.1573 26.0305C18.6148 27.475 17.181 28.5086 15.5019 28.5086C14.4815 28.5086 13.474 28.1101 12.7635 27.4003C12.3502 27.0267 12.0402 26.5286 11.8594 26.0181C12.0273 26.043 12.1952 26.0554 12.376 26.0803C12.6731 26.1177 12.9831 26.155 13.2931 26.1799C14.0294 26.2422 14.7785 26.2796 15.5277 26.2796C16.264 26.2796 17.0002 26.2422 17.7235 26.1799C17.9948 26.155 18.266 26.1426 18.5244 26.1052C18.731 26.0803 18.9377 26.0554 19.1573 26.0305Z" fill="white"/>
</svg>
