<svg width="31" height="31" viewBox="0 0 31 31" fill="none" xmlns="http://www.w3.org/2000/svg">
<path d="M15.4997 2.58325C12.1155 2.58325 9.36426 5.3345 9.36426 8.71867C9.36426 12.0383 11.9605 14.7249 15.3447 14.8412C15.448 14.8283 15.5513 14.8283 15.6288 14.8412C15.6547 14.8412 15.6676 14.8412 15.6934 14.8412C15.7063 14.8412 15.7063 14.8412 15.7193 14.8412C19.0259 14.7249 21.6222 12.0383 21.6351 8.71867C21.6351 5.3345 18.8838 2.58325 15.4997 2.58325Z" fill="white"/>
<path d="M22.0613 18.277C18.4575 15.8745 12.5804 15.8745 8.95083 18.277C7.31042 19.3749 6.40625 20.8603 6.40625 22.4491C6.40625 24.0378 7.31042 25.5103 8.93792 26.5953C10.7463 27.8095 13.1229 28.4166 15.4996 28.4166C17.8763 28.4166 20.2529 27.8095 22.0613 26.5953C23.6888 25.4974 24.5929 24.0249 24.5929 22.4232C24.58 20.8345 23.6888 19.362 22.0613 18.277Z" fill="white"/>
</svg>
